<?xml version="1.0" standalone="no"?>
<!DOCTYPE svg PUBLIC "-//W3C//DTD SVG 20010904//EN"
 "http://www.w3.org/TR/2001/REC-SVG-20010904/DTD/svg10.dtd">
<svg version="1.0" xmlns="http://www.w3.org/2000/svg"
 width="700.000000pt" height="700.000000pt" viewBox="0 0 700.000000 700.000000"
 preserveAspectRatio="xMidYMid meet">
<metadata>
Created by potrace 1.11, written by Peter Selinger 2001-2013
</metadata>
<g transform="translate(0.000000,700.000000) scale(0.100000,-0.100000)"
fill="#000000" stroke="none">
<path d="M1661 6360 c-155 -37 -175 -254 -55 -578 110 -296 341 -648 523 -799
119 -98 296 -170 563 -230 71 -15 128 -30 128 -33 0 -3 -33 -23 -73 -44 -350
-189 -598 -367 -803 -577 -420 -430 -580 -656 -685 -969 -60 -181 -82 -320
-82 -540 -1 -204 13 -297 75 -489 114 -356 370 -784 679 -1135 165 -188 196
-206 423 -246 293 -51 586 -70 1191 -77 861 -10 1418 29 1774 123 123 32 215
82 303 163 89 82 141 161 174 265 48 153 42 410 -12 523 -65 135 -209 130
-363 -13 -40 -37 -62 -51 -65 -43 -3 8 -10 41 -17 74 -17 86 -73 244 -128 360
-98 207 -235 398 -405 569 -200 201 -376 313 -684 436 -134 53 -192 91 -192
127 0 42 22 53 162 78 158 29 249 55 333 97 99 49 163 104 179 155 6 19 -2 29
-53 65 -34 24 -61 51 -61 61 0 21 -2 22 62 -8 91 -42 118 -31 118 48 0 148
-183 433 -444 692 -190 189 -371 328 -616 475 -99 59 -127 84 -500 454 -217
216 -442 433 -500 482 -433 373 -789 573 -949 534z m1907 -1895 c81 -36 162
-121 192 -202 29 -79 29 -187 0 -265 -30 -80 -104 -159 -188 -200 -60 -30 -75
-33 -157 -33 -78 0 -98 4 -153 29 -81 38 -162 123 -192 203 -30 80 -30 187 1
268 33 88 131 183 219 213 90 31 191 26 278 -13z"/>
<path d="M3365 4424 c-99 -25 -172 -81 -212 -162 -37 -76 -40 -183 -5 -253 75
-153 250 -213 400 -138 65 32 99 66 135 133 32 59 31 193 -1 253 -34 65 -78
110 -135 137 -51 25 -142 40 -182 30z"/>
<path d="M2605 6355 c-5 -2 -22 -6 -37 -9 -38 -8 -95 -61 -119 -109 -11 -21
-27 -69 -35 -106 -14 -65 -14 -66 9 -86 13 -11 84 -70 159 -132 205 -169 458
-417 772 -756 55 -59 101 -105 104 -103 10 11 -256 550 -379 766 -184 323
-317 490 -422 529 -29 11 -35 12 -52 6z"/>
</g>
</svg>
