<?xml version="1.0" encoding="UTF-8" standalone="no"?>
<!-- Generator: Adobe Illustrator 20.0.0, SVG Export Plug-In . SVG Version: 6.00 Build 0)  -->

<svg
   xmlns:dc="http://purl.org/dc/elements/1.1/"
   xmlns:cc="http://creativecommons.org/ns#"
   xmlns:rdf="http://www.w3.org/1999/02/22-rdf-syntax-ns#"
   xmlns:svg="http://www.w3.org/2000/svg"
   xmlns="http://www.w3.org/2000/svg"
   xmlns:sodipodi="http://sodipodi.sourceforge.net/DTD/sodipodi-0.dtd"
   xmlns:inkscape="http://www.inkscape.org/namespaces/inkscape"
   version="1.1"
   id="Twitter_Blud"
   x="0px"
   y="0px"
   viewBox="0 0 375 374.99998"
   xml:space="preserve"
   inkscape:version="0.91 r13725"
   sodipodi:docname="twitter.svg"
   width="375"
   height="375"><metadata
     id="metadata13"><rdf:RDF><cc:Work
         rdf:about=""><dc:format>image/svg+xml</dc:format><dc:type
           rdf:resource="http://purl.org/dc/dcmitype/StillImage" /><dc:title /></cc:Work></rdf:RDF></metadata><defs
     id="defs11" /><sodipodi:namedview
     pagecolor="#ffffff"
     bordercolor="#666666"
     borderopacity="1"
     objecttolerance="10"
     gridtolerance="10"
     guidetolerance="10"
     inkscape:pageopacity="0"
     inkscape:pageshadow="2"
     inkscape:window-width="1366"
     inkscape:window-height="705"
     id="namedview9"
     showgrid="false"
     inkscape:zoom="0.7745323"
     inkscape:cx="179.04236"
     inkscape:cy="203.99408"
     inkscape:window-x="-8"
     inkscape:window-y="-8"
     inkscape:window-maximized="1"
     inkscape:current-layer="Twitter_Blud" /><style
     type="text/css"
     id="style3">
	.st0{fill:#1DA1F2;}
</style><g
     id="g5"
     style="fill:#000000"
     transform="matrix(1.2479907,0,0,1.2479907,-46.560656,-2.6937979)"><path
       class="st0"
       d="m 141.1,254 c 94.3,0 145.9,-78.2 145.9,-145.9 0,-2.2 0,-4.4 -0.1,-6.6 10,-7.2 18.7,-16.3 25.6,-26.6 C 303.3,79 293.4,81.7 283,83 293.6,76.7 301.7,66.6 305.6,54.6 295.7,60.5 284.7,64.7 273,67 263.6,57 250.3,50.8 235.6,50.8 c -28.3,0 -51.3,23 -51.3,51.3 0,4 0.5,7.9 1.3,11.7 C 143,111.7 105.2,91.2 79.9,60.2 75.5,67.8 73,76.6 73,86 c 0,17.8 9.1,33.5 22.8,42.7 -8.4,-0.3 -16.3,-2.6 -23.2,-6.4 0,0.2 0,0.4 0,0.7 0,24.8 17.7,45.6 41.1,50.3 -4.3,1.2 -8.8,1.8 -13.5,1.8 -3.3,0 -6.5,-0.3 -9.6,-0.9 6.5,20.4 25.5,35.2 47.9,35.6 -17.6,13.8 -39.7,22 -63.7,22 -4.1,0 -8.2,-0.2 -12.2,-0.7 22.6,14.4 49.6,22.9 78.5,22.9"
       id="path7"
       style="fill:#000000"
       inkscape:connector-curvature="0" /></g></svg>